<?xml version="1.0" encoding="utf-8"?>
<!-- Generator: Adobe Illustrator 26.3.1, SVG Export Plug-In . SVG Version: 6.00 Build 0)  -->
<svg version="1.1" id="Calque_1" xmlns="http://www.w3.org/2000/svg" xmlns:xlink="http://www.w3.org/1999/xlink" x="0px" y="0px"
	 viewBox="0 0 74 74" style="enable-background:new 0 0 74 74;" xml:space="preserve">
<style type="text/css">
	.st0{fill:#FFFFFF;}
	.st1{fill:url(#SVGID_1_);}
	.st2{fill:url(#SVGID_00000116953063155861814220000012388229863326255035_);}
	.st3{fill:url(#SVGID_00000165945978866051299730000004415103698959673228_);}
	.st4{fill:url(#SVGID_00000052081027872323953100000009165014255531401879_);}
	.st5{fill:url(#SVGID_00000056410563542531609550000003502277690873770391_);}
	.st6{fill:url(#SVGID_00000042704031399326008990000017240575261523238810_);}
</style>
<circle class="st0" cx="37" cy="37" r="35"/>
<g>
	
		<linearGradient id="SVGID_1_" gradientUnits="userSpaceOnUse" x1="31.834" y1="-1.8982" x2="18.6688" y2="50.2309" gradientTransform="matrix(1 0 0 -1 0 73.89)">
		<stop  offset="0" style="stop-color:#E2BAFF"/>
		<stop  offset="0.31" style="stop-color:#E61F7F"/>
		<stop  offset="0.7" style="stop-color:#F36F5B"/>
		<stop  offset="1" style="stop-color:#FFB43B"/>
	</linearGradient>
	<path class="st1" d="M23,58.7c-0.3-0.7-0.4-1.5-0.2-2.2l3.4-22l3.7-1.7c0.5-0.2,0.8-0.7,0.9-1.2l0.5-2.9c0.1-0.4-0.2-0.8-0.7-0.9
		c-0.2,0-0.3,0-0.5,0.1L27,29.4l1.1-7.2c0,0,0,0,0-0.1c0.1-0.7-0.4-1.3-1.1-1.3c-0.3,0-0.5,0-0.7,0.1l-4.7,2.3
		c-0.9,0.5-1.6,1.4-1.8,2.4l-4,25.7c-0.3,1.5-0.4,3.1-0.3,4.6c0,1,0.4,2,1,2.8l0,0c1.2,1.2,2.8,1.9,4.4,1.9c0.2,0,0.4,0,0.6,0
		c1.8,0,3.6-0.6,5.1-1.7c-0.7,0.4-1.4,0.5-2.1,0.6C24,59.5,23.4,59.2,23,58.7z"/>
	
		<linearGradient id="SVGID_00000115512419034703449450000010454873054605437570_" gradientUnits="userSpaceOnUse" x1="63.2239" y1="6.0294" x2="50.0586" y2="58.1584" gradientTransform="matrix(1 0 0 -1 0 73.89)">
		<stop  offset="0" style="stop-color:#E2BAFF"/>
		<stop  offset="0.31" style="stop-color:#E61F7F"/>
		<stop  offset="0.7" style="stop-color:#F36F5B"/>
		<stop  offset="1" style="stop-color:#FFB43B"/>
	</linearGradient>
	<path style="fill:url(#SVGID_00000115512419034703449450000010454873054605437570_);" d="M48.3,19.3c-0.4,1-1.1,1.8-2.1,2.3l0,0
		c-0.1,0.1-0.1,0.2,0,0.3l0,0l0.1,0.1c0,0,6.7-0.1,8.6-4.7c0.5-1.2,0.5-2.6,0-3.8c-1-2.3-3.7-3.3-6-2.3h-0.1c-1.1,0.5-2,1.5-2.4,2.7
		C45.6,16,46.5,18.3,48.3,19.3z"/>
	
		<linearGradient id="SVGID_00000165936243236749466400000007813007450166909077_" gradientUnits="userSpaceOnUse" x1="37.481" y1="-0.4721" x2="24.3157" y2="51.657" gradientTransform="matrix(1 0 0 -1 0 73.89)">
		<stop  offset="0" style="stop-color:#E2BAFF"/>
		<stop  offset="0.31" style="stop-color:#E61F7F"/>
		<stop  offset="0.7" style="stop-color:#F36F5B"/>
		<stop  offset="1" style="stop-color:#FFB43B"/>
	</linearGradient>
	<path style="fill:url(#SVGID_00000165936243236749466400000007813007450166909077_);" d="M37.6,51.5c0,0-7.1-0.1-9.5,4.7
		c-0.6,1.3-0.6,2.7-0.2,4c0.5,1.2,1.4,2.2,2.7,2.7c0.6,0.2,1.2,0.4,1.8,0.4c0.7,0,1.4-0.1,2-0.4c1.2-0.5,2.2-1.6,2.7-2.8
		c0.9-2.2,0.3-4-1.9-5.7c0.5-1,1.4-1.8,2.4-2.3c0.1-0.1,0.2-0.2,0.1-0.3C37.8,51.5,37.7,51.5,37.6,51.5z"/>
	
		<linearGradient id="SVGID_00000013167350802815225110000000464049891956605373_" gradientUnits="userSpaceOnUse" x1="47.347" y1="2.0196" x2="34.1817" y2="54.1487" gradientTransform="matrix(1 0 0 -1 0 73.89)">
		<stop  offset="0" style="stop-color:#E2BAFF"/>
		<stop  offset="0.31" style="stop-color:#E61F7F"/>
		<stop  offset="0.7" style="stop-color:#F36F5B"/>
		<stop  offset="1" style="stop-color:#FFB43B"/>
	</linearGradient>
	<path style="fill:url(#SVGID_00000013167350802815225110000000464049891956605373_);" d="M41.9,29.2l2.3-14.7l0,0
		c0.1-0.8-0.4-1.5-1.2-1.6c-0.3-0.1-0.6,0-0.9,0.1l-4,2c-0.9,0.5-1.6,1.4-1.8,2.4l-5.4,34.7c1.6-0.8,3.2-1.3,5-1.6
		c0.4,0,1.9-0.3,2.6,0.5l3.1-19.5L41.9,29.2z"/>
	
		<linearGradient id="SVGID_00000040555513639672168560000016717223373285927055_" gradientUnits="userSpaceOnUse" x1="45.8989" y1="1.6539" x2="32.7337" y2="53.783" gradientTransform="matrix(1 0 0 -1 0 73.89)">
		<stop  offset="0" style="stop-color:#E2BAFF"/>
		<stop  offset="0.31" style="stop-color:#E61F7F"/>
		<stop  offset="0.7" style="stop-color:#F36F5B"/>
		<stop  offset="1" style="stop-color:#FFB43B"/>
	</linearGradient>
	<path style="fill:url(#SVGID_00000040555513639672168560000016717223373285927055_);" d="M37,1C17.1,1,1,17.1,1,37s16.1,36,36,36
		s36-16.1,36-36S56.9,1,37,1z M37,71.1C18.1,71.1,2.9,55.8,2.9,37S18.2,2.9,37,2.9l0,0c18.9,0,34.1,15.3,34.1,34.1
		C71.2,55.9,55.9,71.1,37,71.1z"/>
	
		<linearGradient id="SVGID_00000136383106930321527950000001527496625902565271_" gradientUnits="userSpaceOnUse" x1="55.6704" y1="4.1217" x2="42.5051" y2="56.2508" gradientTransform="matrix(1 0 0 -1 0 73.89)">
		<stop  offset="0" style="stop-color:#E2BAFF"/>
		<stop  offset="0.31" style="stop-color:#E61F7F"/>
		<stop  offset="0.7" style="stop-color:#F36F5B"/>
		<stop  offset="1" style="stop-color:#FFB43B"/>
	</linearGradient>
	<path style="fill:url(#SVGID_00000136383106930321527950000001527496625902565271_);" d="M55.5,25.9c-1.3-1-3-1.6-4.7-1.5
		c-1.8-0.1-3.5,0.4-5,1.4c-1.4,0.9-2.6,2.1-3.4,3.6c0.4-0.5,1-1,1.5-1.4c0.9-0.8,2.1-1.2,3.4-1.2c1.6,0,2.6,0.9,3.1,2.8
		c0.3,1.8,0.4,3.6,0.3,5.4c0,3.1-0.5,6.1-1.4,9.1c-0.7,2.6-2.1,5-4,6.9c-0.8,0.8-1.8,1.4-2.9,1.7c-1.3,0.3-2.6,0-3.6-0.8
		c0,0,1.2,1.5,4.8,1.5h0.2c2.2,0,4.3-0.5,6.2-1.6c2.1-1.2,3.9-2.9,5.1-4.9c1.6-2.7,2.6-5.6,3-8.7c0.5-2.5,0.5-5.1,0-7.6
		C57.8,28.7,56.9,27.1,55.5,25.9z"/>
</g>
</svg>
